<mxfile host="app.diagrams.net" agent="Mozilla/5.0 (X11; Linux x86_64) AppleWebKit/537.36 (KHTML, like Gecko) Chrome/128.0.0.0 Safari/537.36" version="24.7.13">
  <diagram name="PÃ¡gina-1" id="cU92eyZIP07kXA5iKUZk">
    <mxGraphModel dx="1434" dy="1960" grid="1" gridSize="10" guides="1" tooltips="1" connect="1" arrows="1" fold="1" page="1" pageScale="1" pageWidth="827" pageHeight="1169" math="0" shadow="0">
      <root>
        <mxCell id="0" />
        <mxCell id="1" parent="0" />
        <mxCell id="cKrOKOpTMZdyzhnUi_az-14" value="&lt;h1&gt;&lt;font style=&quot;font-size: 20px;&quot;&gt;(Atributos)&lt;/font&gt;&lt;/h1&gt;&lt;br style=&quot;forced-color-adjust: none; padding: 0px; margin: 0px;&quot;&gt;&lt;div style=&quot;text-align: left; font-size: 15px; line-height: 120%;&quot;&gt;&lt;font face=&quot;Verdana&quot;&gt;ID&lt;/font&gt;&lt;/div&gt;&lt;div style=&quot;text-align: left; font-size: 15px; line-height: 120%;&quot;&gt;&lt;span style=&quot;font-family: Verdana; background-color: initial;&quot;&gt;NOME&lt;/span&gt;&lt;/div&gt;&lt;div style=&quot;text-align: left; font-size: 15px; line-height: 120%;&quot;&gt;&lt;span style=&quot;font-family: Verdana; background-color: initial;&quot;&gt;TELEFONE&lt;/span&gt;&lt;/div&gt;&lt;div style=&quot;text-align: left; font-size: 15px; line-height: 120%;&quot;&gt;&lt;span style=&quot;background-color: initial;&quot;&gt;&lt;font face=&quot;Verdana&quot; style=&quot;font-size: 15px;&quot;&gt;EMAIL&lt;/font&gt;&lt;/span&gt;&lt;/div&gt;&lt;div style=&quot;text-align: left; font-size: 15px; line-height: 120%;&quot;&gt;&lt;font face=&quot;Verdana&quot;&gt;FOTO&amp;nbsp; &quot;opciaonal&quot;&lt;/font&gt;&lt;/div&gt;&lt;div style=&quot;text-align: left; forced-color-adjust: none; padding: 0px; margin: 0px; font-size: 15px; line-height: 120%;&quot;&gt;&lt;br style=&quot;forced-color-adjust: none; padding: 0px; margin: 0px; color: rgb(0, 0, 0); font-family: Helvetica; font-style: normal; font-variant-ligatures: normal; font-variant-caps: normal; font-weight: 700; letter-spacing: normal; orphans: 2; text-indent: 0px; text-transform: none; widows: 2; word-spacing: 0px; -webkit-text-stroke-width: 0px; white-space: nowrap; background-color: rgb(251, 251, 251); text-decoration-thickness: initial; text-decoration-style: initial; text-decoration-color: initial;&quot;&gt;&lt;/div&gt;" style="rounded=1;whiteSpace=wrap;html=1;" parent="1" vertex="1">
          <mxGeometry x="520" y="-226" width="220" height="157.5" as="geometry" />
        </mxCell>
        <mxCell id="cKrOKOpTMZdyzhnUi_az-17" value="&lt;h1&gt;&lt;font style=&quot;font-size: 20px;&quot; face=&quot;Helvetica&quot;&gt;ENTIDATE&lt;/font&gt;&lt;/h1&gt;&lt;div style=&quot;padding-top: 0px;&quot;&gt;&lt;font face=&quot;Times New Roman&quot; style=&quot;font-size: 20px;&quot;&gt;(Usuarios)&lt;/font&gt;&lt;/div&gt;" style="rounded=1;whiteSpace=wrap;html=1;spacingTop=-11;spacing=-11;fillColor=#d5e8d4;strokeColor=#82b366;" parent="1" vertex="1">
          <mxGeometry x="30" y="-192.25" width="200" height="90" as="geometry" />
        </mxCell>
        <mxCell id="cKrOKOpTMZdyzhnUi_az-18" value="" style="endArrow=none;html=1;rounded=0;exitX=1.02;exitY=0.425;exitDx=0;exitDy=0;exitPerimeter=0;entryX=-0.005;entryY=0.457;entryDx=0;entryDy=0;entryPerimeter=0;" parent="1" source="cKrOKOpTMZdyzhnUi_az-17" target="cKrOKOpTMZdyzhnUi_az-14" edge="1">
          <mxGeometry width="50" height="50" relative="1" as="geometry">
            <mxPoint x="364" y="-106" as="sourcePoint" />
            <mxPoint x="510" y="-156" as="targetPoint" />
          </mxGeometry>
        </mxCell>
        <mxCell id="cKrOKOpTMZdyzhnUi_az-21" value="Users" style="edgeLabel;html=1;align=center;verticalAlign=middle;resizable=0;points=[];" parent="cKrOKOpTMZdyzhnUi_az-18" vertex="1" connectable="0">
          <mxGeometry x="0.0592" y="-3" relative="1" as="geometry">
            <mxPoint x="-19" y="-5" as="offset" />
          </mxGeometry>
        </mxCell>
        <mxCell id="cKrOKOpTMZdyzhnUi_az-19" value="&lt;h1&gt;&lt;font style=&quot;font-size: 20px;&quot; face=&quot;Helvetica&quot;&gt;ENTIDATE&lt;/font&gt;&lt;/h1&gt;&lt;div&gt;&lt;font face=&quot;Times New Roman&quot; style=&quot;font-size: 20px;&quot;&gt;(Barbeiros)&lt;/font&gt;&lt;/div&gt;" style="rounded=1;whiteSpace=wrap;html=1;spacingTop=-11;spacing=-11;fillColor=#d5e8d4;strokeColor=#82b366;" parent="1" vertex="1">
          <mxGeometry x="30" y="43" width="200" height="90" as="geometry" />
        </mxCell>
        <mxCell id="cKrOKOpTMZdyzhnUi_az-20" value="" style="endArrow=none;html=1;rounded=0;entryX=0.5;entryY=1;entryDx=0;entryDy=0;exitX=0.5;exitY=0;exitDx=0;exitDy=0;" parent="1" source="cKrOKOpTMZdyzhnUi_az-19" target="cKrOKOpTMZdyzhnUi_az-17" edge="1">
          <mxGeometry width="50" height="50" relative="1" as="geometry">
            <mxPoint x="160" y="34" as="sourcePoint" />
            <mxPoint x="200" y="-56" as="targetPoint" />
          </mxGeometry>
        </mxCell>
        <mxCell id="cKrOKOpTMZdyzhnUi_az-26" value="&lt;h1&gt;&lt;font style=&quot;font-size: 20px;&quot;&gt;(Atributos)&lt;/font&gt;&lt;/h1&gt;&lt;br style=&quot;forced-color-adjust: none; padding: 0px; margin: 0px;&quot;&gt;&lt;div style=&quot;text-align: left; font-size: 15px; line-height: 120%;&quot;&gt;&lt;font face=&quot;Verdana&quot;&gt;ID&lt;/font&gt;&lt;/div&gt;&lt;div style=&quot;text-align: left; font-size: 15px; line-height: 120%;&quot;&gt;&lt;span style=&quot;font-family: Verdana; background-color: initial;&quot;&gt;NOME&lt;/span&gt;&lt;/div&gt;&lt;div style=&quot;text-align: left; font-size: 15px; line-height: 120%;&quot;&gt;&lt;span style=&quot;font-family: Verdana; background-color: initial;&quot;&gt;DISPONIBILIDADE&lt;/span&gt;&lt;/div&gt;&lt;div style=&quot;text-align: left; font-size: 15px; line-height: 120%;&quot;&gt;&lt;br&gt;&lt;/div&gt;&lt;div style=&quot;text-align: left; forced-color-adjust: none; padding: 0px; margin: 0px; font-size: 15px; line-height: 120%;&quot;&gt;&lt;br style=&quot;forced-color-adjust: none; padding: 0px; margin: 0px; color: rgb(0, 0, 0); font-family: Helvetica; font-style: normal; font-variant-ligatures: normal; font-variant-caps: normal; font-weight: 700; letter-spacing: normal; orphans: 2; text-indent: 0px; text-transform: none; widows: 2; word-spacing: 0px; -webkit-text-stroke-width: 0px; white-space: nowrap; background-color: rgb(251, 251, 251); text-decoration-thickness: initial; text-decoration-style: initial; text-decoration-color: initial;&quot;&gt;&lt;/div&gt;" style="rounded=1;whiteSpace=wrap;html=1;" parent="1" vertex="1">
          <mxGeometry x="520" y="10.25" width="220" height="157.5" as="geometry" />
        </mxCell>
        <mxCell id="cKrOKOpTMZdyzhnUi_az-31" value="" style="endArrow=none;html=1;rounded=0;exitX=1;exitY=0.25;exitDx=0;exitDy=0;entryX=0.009;entryY=0.36;entryDx=0;entryDy=0;entryPerimeter=0;" parent="1" edge="1">
          <mxGeometry width="50" height="50" relative="1" as="geometry">
            <mxPoint x="230" y="88.5" as="sourcePoint" />
            <mxPoint x="521.98" y="88.95000000000005" as="targetPoint" />
            <Array as="points">
              <mxPoint x="330" y="89" />
            </Array>
          </mxGeometry>
        </mxCell>
        <mxCell id="cKrOKOpTMZdyzhnUi_az-33" value="Barbers" style="edgeLabel;html=1;align=center;verticalAlign=middle;resizable=0;points=[];" parent="cKrOKOpTMZdyzhnUi_az-31" vertex="1" connectable="0">
          <mxGeometry x="-0.0821" y="-3" relative="1" as="geometry">
            <mxPoint as="offset" />
          </mxGeometry>
        </mxCell>
        <mxCell id="DhuK5LboHCLWYcnkCGI0-1" value="&lt;h1&gt;&lt;font style=&quot;font-size: 20px;&quot; face=&quot;Helvetica&quot;&gt;Relacionamento&lt;/font&gt;&lt;/h1&gt;&lt;div&gt;&lt;font face=&quot;Times New Roman&quot; style=&quot;font-size: 20px;&quot;&gt;(Disponibilidade)&lt;/font&gt;&lt;/div&gt;" style="rounded=1;whiteSpace=wrap;html=1;spacingTop=-11;spacing=-11;" vertex="1" parent="1">
          <mxGeometry x="30" y="244" width="200" height="90" as="geometry" />
        </mxCell>
        <mxCell id="DhuK5LboHCLWYcnkCGI0-7" value="&lt;h1 style=&quot;padding-top: 0px; padding-bottom: 0px; margin-top: -100px;&quot;&gt;&lt;font style=&quot;font-size: 20px;&quot; face=&quot;Helvetica&quot;&gt;ENTIDATE&lt;/font&gt;&lt;/h1&gt;&lt;div style=&quot;padding-top: 0px;&quot;&gt;&lt;font face=&quot;Times New Roman&quot; style=&quot;font-size: 20px;&quot;&gt;(Disponibilidade)&lt;/font&gt;&lt;/div&gt;&lt;div style=&quot;padding-top: 0px;&quot;&gt;&lt;font face=&quot;Times New Roman&quot; style=&quot;font-size: 20px;&quot;&gt;&lt;br&gt;&lt;/font&gt;&lt;/div&gt;&lt;div style=&quot;text-align: left; padding-top: 0px;&quot;&gt;&lt;span style=&quot;font-size: 20px;&quot;&gt;&lt;font face=&quot;Verdana&quot;&gt;Dia e horarios listados&lt;/font&gt;&lt;/span&gt;&lt;/div&gt;&lt;div style=&quot;text-align: left; padding-top: 0px;&quot;&gt;&lt;span style=&quot;font-size: 20px;&quot;&gt;&lt;font face=&quot;Verdana&quot;&gt;para cada barbeiro&lt;/font&gt;&lt;/span&gt;&lt;/div&gt;" style="rounded=1;whiteSpace=wrap;html=1;spacingTop=86;spacing=-11;fillColor=#d5e8d4;strokeColor=#82b366;" vertex="1" parent="1">
          <mxGeometry x="540" y="224" width="200" height="180" as="geometry" />
        </mxCell>
        <mxCell id="DhuK5LboHCLWYcnkCGI0-8" value="&lt;h1&gt;&lt;font style=&quot;font-size: 20px;&quot; face=&quot;Helvetica&quot;&gt;ENTIDATE&lt;/font&gt;&lt;/h1&gt;&lt;div&gt;&lt;font face=&quot;Times New Roman&quot; style=&quot;font-size: 20px;&quot;&gt;(Agendamento)&lt;/font&gt;&lt;/div&gt;" style="rounded=1;whiteSpace=wrap;html=1;spacingTop=-11;spacing=-11;fillColor=#d5e8d4;strokeColor=#82b366;" vertex="1" parent="1">
          <mxGeometry x="40" y="484" width="200" height="90" as="geometry" />
        </mxCell>
        <mxCell id="DhuK5LboHCLWYcnkCGI0-10" value="&lt;h1 style=&quot;margin-top: 65.08px;&quot;&gt;&lt;font style=&quot;font-size: 20px;&quot;&gt;(Atributos)&lt;/font&gt;&lt;/h1&gt;&lt;br style=&quot;forced-color-adjust: none; padding: 0px; margin: 0px;&quot;&gt;&lt;div style=&quot;text-align: left; font-size: 15px; line-height: 120%;&quot;&gt;&lt;font face=&quot;Verdana&quot;&gt;ID&lt;/font&gt;&lt;/div&gt;&lt;div style=&quot;text-align: left; font-size: 15px; line-height: 120%;&quot;&gt;&lt;span style=&quot;font-family: Verdana; background-color: initial;&quot;&gt;NOME DE USUÃRIO&amp;nbsp;&lt;/span&gt;&lt;/div&gt;&lt;div style=&quot;text-align: left; font-size: 15px; line-height: 120%;&quot;&gt;&lt;span style=&quot;font-family: Verdana; background-color: initial;&quot;&gt;DATA E HORÃRIO&lt;/span&gt;&lt;/div&gt;&lt;div style=&quot;text-align: left; font-size: 15px; line-height: 120%;&quot;&gt;&lt;span style=&quot;font-family: Verdana; background-color: initial;&quot;&gt;SERVIÃO ESCOLHIDO&lt;/span&gt;&lt;/div&gt;&lt;div style=&quot;text-align: left; font-size: 15px; line-height: 120%;&quot;&gt;&lt;span style=&quot;font-family: Verdana; background-color: initial;&quot;&gt;BARBEIRO SELECIONADO&lt;/span&gt;&lt;/div&gt;&lt;div style=&quot;text-align: left; font-size: 15px; line-height: 120%;&quot;&gt;&lt;span style=&quot;font-family: Verdana; background-color: initial;&quot;&gt;&lt;br&gt;&lt;/span&gt;&lt;/div&gt;&lt;div style=&quot;text-align: left; font-size: 15px; line-height: 120%;&quot;&gt;&lt;span style=&quot;font-family: Verdana; background-color: initial;&quot;&gt;&lt;br&gt;&lt;/span&gt;&lt;/div&gt;&lt;div style=&quot;text-align: left; font-size: 15px; line-height: 120%;&quot;&gt;&lt;br&gt;&lt;/div&gt;&lt;div style=&quot;text-align: left; forced-color-adjust: none; padding: 0px; margin: 0px; font-size: 15px; line-height: 120%;&quot;&gt;&lt;br style=&quot;forced-color-adjust: none; padding: 0px; margin: 0px; color: rgb(0, 0, 0); font-family: Helvetica; font-style: normal; font-variant-ligatures: normal; font-variant-caps: normal; font-weight: 700; letter-spacing: normal; orphans: 2; text-indent: 0px; text-transform: none; widows: 2; word-spacing: 0px; -webkit-text-stroke-width: 0px; white-space: nowrap; background-color: rgb(251, 251, 251); text-decoration-thickness: initial; text-decoration-style: initial; text-decoration-color: initial;&quot;&gt;&lt;/div&gt;" style="rounded=1;whiteSpace=wrap;html=1;" vertex="1" parent="1">
          <mxGeometry x="530" y="450.25" width="220" height="157.5" as="geometry" />
        </mxCell>
        <mxCell id="DhuK5LboHCLWYcnkCGI0-14" value="" style="endArrow=none;html=1;rounded=0;" edge="1" parent="1">
          <mxGeometry width="50" height="50" relative="1" as="geometry">
            <mxPoint x="240" y="521" as="sourcePoint" />
            <mxPoint x="530" y="521" as="targetPoint" />
            <Array as="points" />
          </mxGeometry>
        </mxCell>
        <mxCell id="DhuK5LboHCLWYcnkCGI0-16" value="Agendamento" style="edgeLabel;html=1;align=center;verticalAlign=middle;resizable=0;points=[];" vertex="1" connectable="0" parent="DhuK5LboHCLWYcnkCGI0-14">
          <mxGeometry x="-0.0897" relative="1" as="geometry">
            <mxPoint as="offset" />
          </mxGeometry>
        </mxCell>
        <mxCell id="DhuK5LboHCLWYcnkCGI0-15" value="" style="endArrow=none;html=1;rounded=0;entryX=0.545;entryY=1.033;entryDx=0;entryDy=0;entryPerimeter=0;exitX=0.5;exitY=0;exitDx=0;exitDy=0;" edge="1" parent="1" source="DhuK5LboHCLWYcnkCGI0-8" target="DhuK5LboHCLWYcnkCGI0-1">
          <mxGeometry width="50" height="50" relative="1" as="geometry">
            <mxPoint x="390" y="454" as="sourcePoint" />
            <mxPoint x="440" y="404" as="targetPoint" />
            <Array as="points" />
          </mxGeometry>
        </mxCell>
        <mxCell id="DhuK5LboHCLWYcnkCGI0-17" value="&lt;h1&gt;&lt;font style=&quot;font-size: 20px;&quot; face=&quot;Helvetica&quot;&gt;Relacionamento&lt;/font&gt;&lt;/h1&gt;&lt;div&gt;&lt;font face=&quot;Times New Roman&quot; style=&quot;font-size: 20px;&quot;&gt;(Agendamento)&lt;/font&gt;&lt;/div&gt;" style="rounded=1;whiteSpace=wrap;html=1;spacingTop=-11;spacing=-11;fillColor=#f8cecc;strokeColor=#b85450;" vertex="1" parent="1">
          <mxGeometry x="40" y="674" width="200" height="90" as="geometry" />
        </mxCell>
        <mxCell id="DhuK5LboHCLWYcnkCGI0-19" value="" style="endArrow=none;dashed=1;html=1;dashPattern=1 3;strokeWidth=2;rounded=0;exitX=0.5;exitY=0;exitDx=0;exitDy=0;entryX=0.5;entryY=1;entryDx=0;entryDy=0;" edge="1" parent="1" source="DhuK5LboHCLWYcnkCGI0-17" target="DhuK5LboHCLWYcnkCGI0-8">
          <mxGeometry width="50" height="50" relative="1" as="geometry">
            <mxPoint x="390" y="574" as="sourcePoint" />
            <mxPoint x="440" y="524" as="targetPoint" />
          </mxGeometry>
        </mxCell>
        <mxCell id="DhuK5LboHCLWYcnkCGI0-21" value="" style="endArrow=none;dashed=1;html=1;dashPattern=1 3;strokeWidth=2;rounded=0;exitX=1.015;exitY=0.367;exitDx=0;exitDy=0;exitPerimeter=0;startArrow=classic;startFill=1;fillColor=#f8cecc;strokeColor=#b85450;entryX=-0.02;entryY=0.556;entryDx=0;entryDy=0;entryPerimeter=0;" edge="1" parent="1" source="DhuK5LboHCLWYcnkCGI0-17" target="DhuK5LboHCLWYcnkCGI0-7">
          <mxGeometry width="50" height="50" relative="1" as="geometry">
            <mxPoint x="390" y="414" as="sourcePoint" />
            <mxPoint x="530" y="334" as="targetPoint" />
          </mxGeometry>
        </mxCell>
        <mxCell id="DhuK5LboHCLWYcnkCGI0-22" value="" style="endArrow=none;html=1;rounded=0;exitX=1;exitY=0.5;exitDx=0;exitDy=0;entryX=0;entryY=0.361;entryDx=0;entryDy=0;entryPerimeter=0;" edge="1" parent="1" source="DhuK5LboHCLWYcnkCGI0-1" target="DhuK5LboHCLWYcnkCGI0-7">
          <mxGeometry width="50" height="50" relative="1" as="geometry">
            <mxPoint x="390" y="414" as="sourcePoint" />
            <mxPoint x="550" y="284" as="targetPoint" />
            <Array as="points" />
          </mxGeometry>
        </mxCell>
        <mxCell id="DhuK5LboHCLWYcnkCGI0-23" value="" style="endArrow=none;dashed=1;html=1;dashPattern=1 3;strokeWidth=2;rounded=0;exitX=1;exitY=0.25;exitDx=0;exitDy=0;startArrow=classic;startFill=1;fillColor=#f8cecc;strokeColor=#b85450;entryX=0;entryY=0.556;entryDx=0;entryDy=0;entryPerimeter=0;" edge="1" parent="1" source="cKrOKOpTMZdyzhnUi_az-19" target="DhuK5LboHCLWYcnkCGI0-7">
          <mxGeometry width="50" height="50" relative="1" as="geometry">
            <mxPoint x="230" y="87" as="sourcePoint" />
            <mxPoint x="523" y="-296" as="targetPoint" />
          </mxGeometry>
        </mxCell>
        <mxCell id="DhuK5LboHCLWYcnkCGI0-25" value="" style="endArrow=none;dashed=1;html=1;dashPattern=1 3;strokeWidth=2;rounded=0;startArrow=classic;startFill=1;fillColor=#f8cecc;strokeColor=#b85450;entryX=-0.02;entryY=0.556;entryDx=0;entryDy=0;entryPerimeter=0;exitX=0.91;exitY=0;exitDx=0;exitDy=0;exitPerimeter=0;" edge="1" parent="1" source="cKrOKOpTMZdyzhnUi_az-19">
          <mxGeometry width="50" height="50" relative="1" as="geometry">
            <mxPoint x="240" y="90" as="sourcePoint" />
            <mxPoint x="133" y="-102.25" as="targetPoint" />
            <Array as="points" />
          </mxGeometry>
        </mxCell>
        <mxCell id="DhuK5LboHCLWYcnkCGI0-26" value="&lt;h1&gt;&lt;font style=&quot;font-size: 20px;&quot;&gt;&amp;nbsp; &amp;nbsp; &amp;nbsp; &amp;nbsp;(Agendamento)&lt;/font&gt;&lt;/h1&gt;&lt;div&gt;&lt;font style=&quot;font-size: 20px;&quot;&gt;&amp;nbsp; &amp;nbsp; &amp;nbsp; &amp;nbsp; &amp;nbsp;&lt;font color=&quot;#c92c2c&quot;&gt;*Relaciona-se*&lt;/font&gt;&lt;/font&gt;&lt;/div&gt;&lt;div&gt;&lt;font style=&quot;font-size: 20px;&quot;&gt;&lt;font color=&quot;#c92c2c&quot;&gt;&lt;br&gt;&lt;/font&gt;&lt;/font&gt;&lt;/div&gt;&lt;div&gt;&lt;font style=&quot;font-size: 20px;&quot;&gt;&amp;nbsp; Com as entidades&lt;/font&gt;&lt;/div&gt;&lt;div&gt;&lt;font style=&quot;font-size: 20px;&quot;&gt;&lt;br&gt;&lt;/font&gt;&lt;/div&gt;&lt;div&gt;&lt;font style=&quot;font-size: 20px;&quot;&gt;&amp;nbsp; USUARIOS&lt;/font&gt;&lt;/div&gt;&lt;div&gt;&lt;font style=&quot;font-size: 20px;&quot;&gt;&amp;nbsp; BARBEIROS&lt;/font&gt;&lt;/div&gt;&lt;div&gt;&lt;font style=&quot;font-size: 20px;&quot;&gt;&amp;nbsp; DISPONIBILIDADE&lt;/font&gt;&lt;/div&gt;&lt;div&gt;&lt;font style=&quot;font-size: 20px;&quot;&gt;&amp;nbsp;&lt;/font&gt;&lt;/div&gt;" style="rounded=1;whiteSpace=wrap;html=1;align=left;" vertex="1" parent="1">
          <mxGeometry x="520" y="670" width="230" height="220" as="geometry" />
        </mxCell>
      </root>
    </mxGraphModel>
  </diagram>
</mxfile>
